<svg width="38" height="38" viewBox="0 0 38 38" fill="none" xmlns="http://www.w3.org/2000/svg">
<path fill-rule="evenodd" clip-rule="evenodd" d="M0 19C0 29.4933 8.50727 38 19.0004 38C29.4935 38 38 29.4933 38 19C38 8.50668 29.4935 0 19.0004 0C8.50727 0 0 8.50668 0 19Z" fill="#00BEFF"/>
<path fill-rule="evenodd" clip-rule="evenodd" d="M16.7725 25.9231C16.7725 26.9852 15.9153 27.8462 14.8579 27.8462C13.8005 27.8462 12.9434 26.9852 12.9434 25.9231C12.9434 24.861 13.8005 24 14.8579 24C15.9153 24 16.7725 24.861 16.7725 25.9231Z" stroke="white"/>
<path fill-rule="evenodd" clip-rule="evenodd" d="M26.7276 25.9231C26.7276 26.9852 25.8704 27.8462 24.813 27.8462C23.7556 27.8462 22.8984 26.9852 22.8984 25.9231C22.8984 24.861 23.7556 24 24.813 24C25.8704 24 26.7276 24.861 26.7276 25.9231Z" stroke="white"/>
<path d="M6.96875 10H9.34881L14.4356 24H24.8893" stroke="white"/>
<path d="M10.9512 14H27.0337L24.5295 20.9231H13.2707" stroke="white"/>
</svg>
