<svg width="10" height="20" viewBox="0 0 10 20" fill="none" xmlns="http://www.w3.org/2000/svg">
<path fill-rule="evenodd" clip-rule="evenodd" d="M2.02852 3.87336C2.02852 4.37737 2.02852 6.62697 2.02852 6.62697H0V9.99409H2.02852V20H6.19552V9.99437H8.99177C8.99177 9.99437 9.25365 8.37986 9.3806 6.61456C9.01665 6.61456 6.21128 6.61456 6.21128 6.61456C6.21128 6.61456 6.21128 4.65567 6.21128 4.31232C6.21128 3.96822 6.66561 3.50537 7.11465 3.50537C7.56286 3.50537 8.50883 3.50537 9.38499 3.50537C9.38499 3.04693 9.38499 1.46292 9.38499 0C8.21534 0 6.88466 0 6.2981 0C1.92551 -0.000232498 2.02852 3.37024 2.02852 3.87336Z" fill="white"/>
</svg>
