<svg width="65" height="23" viewBox="0 0 65 23" fill="none" xmlns="http://www.w3.org/2000/svg">
<path d="M10.3077 22.6515H11.9302V12.1529C11.9302 8.9397 10.0532 7.12631 5.98101 7.12631C3.46771 7.12631 1.87702 7.66715 0.57265 9.48054L1.74976 10.4986C2.73599 9.09877 3.81767 8.55794 5.98101 8.55794C9.13059 8.55794 10.3077 9.86231 10.3077 12.312V14.0299H5.34473C2.00428 14.0299 0 15.6524 0 18.4521C0 19.5974 0.381767 20.7108 1.11349 21.4426C2.09972 22.4606 3.34046 22.8424 5.63106 22.8424C7.7944 22.8424 9.00333 22.4288 10.3077 21.1244V22.6515ZM10.3077 15.3343V17.3068C10.3077 18.7066 10.0214 19.6928 9.44873 20.2336C8.33524 21.2835 7.03087 21.4107 5.63106 21.4107C2.83144 21.4107 1.62251 20.4563 1.62251 18.4202C1.62251 16.3523 2.92688 15.3343 5.53562 15.3343H10.3077Z" fill="white"/>
<path d="M22.0602 22.6515H23.46V21.2199H22.3465C20.724 21.2199 19.9923 20.2973 19.9923 18.6748V8.52612H23.46V7.3172H19.9923V2.41785H18.3698V7.3172H16.2701V8.52612H18.3698V18.6429C18.3698 20.9654 19.6423 22.6515 22.0602 22.6515Z" fill="white"/>
<path d="M31.9605 22.6515H33.3603V21.2199H32.2469C30.4335 21.2199 29.8926 20.3927 29.8926 18.6429V0H28.2701V18.6748C28.2701 21.0926 29.4472 22.6515 31.9605 22.6515Z" fill="white"/>
<path d="M46.4711 22.6515H48.0937V12.1529C48.0937 8.9397 46.2166 7.12631 42.1445 7.12631C39.6312 7.12631 38.0405 7.66715 36.7361 9.48054L37.9132 10.4986C38.8994 9.09877 39.9811 8.55794 42.1445 8.55794C45.294 8.55794 46.4711 9.86231 46.4711 12.312V14.0299H41.5082C38.1677 14.0299 36.1634 15.6524 36.1634 18.4521C36.1634 19.5974 36.5452 20.7108 37.2769 21.4426C38.2632 22.4606 39.5039 22.8424 41.7945 22.8424C43.9578 22.8424 45.1668 22.4288 46.4711 21.1244V22.6515ZM46.4711 15.3343V17.3068C46.4711 18.7066 46.1848 19.6928 45.6122 20.2336C44.4987 21.2835 43.1943 21.4107 41.7945 21.4107C38.9949 21.4107 37.786 20.4563 37.786 18.4202C37.786 16.3523 39.0903 15.3343 41.6991 15.3343H46.4711Z" fill="white"/>
<path d="M65 18.293C65 15.3025 63.0594 14.5389 60.5142 14.2844L58.0328 14.0617C55.8694 13.839 54.915 13.1073 54.915 11.4848C54.915 9.57598 56.283 8.52612 58.8281 8.52612C60.5142 8.52612 61.9459 8.97152 63.123 9.83049L64.2047 8.74882C62.8367 7.73077 60.9596 7.12631 58.8281 7.12631C55.4876 7.12631 53.3243 8.81245 53.3243 11.4848C53.3243 13.9027 54.8514 15.2389 57.9373 15.4934L60.4824 15.7161C62.5185 15.9388 63.4093 16.6705 63.4093 18.293C63.4093 20.3609 61.8186 21.4107 58.7963 21.4107C56.6329 21.4107 54.9468 20.7745 53.7697 19.5337L52.6562 20.6472C54.2151 22.1425 56.1876 22.8424 58.8599 22.8424C62.6458 22.8424 65 21.0926 65 18.293Z" fill="white"/>
</svg>
