<svg width="18" height="22" viewBox="0 0 18 22" fill="none" xmlns="http://www.w3.org/2000/svg">
<path d="M7.41698 10.9846L7.2021 10.5331L7.20145 10.5334L7.41698 10.9846ZM11.045 10.9846L11.2606 10.5335L11.2602 10.5333L11.045 10.9846ZM15.04 12.8937L14.8244 13.3448L14.8245 13.3449L15.04 12.8937ZM3.42088 12.8937L3.20534 12.4425L3.20499 12.4427L3.42088 12.8937ZM13.2826 5.9879C13.2826 8.24712 11.4652 10.0754 9.23156 10.0754V11.0754C12.0254 11.0754 14.2826 8.79151 14.2826 5.9879H13.2826ZM9.23156 10.0754C6.99909 10.0754 5.18164 8.2472 5.18164 5.9879H4.18164C4.18164 8.79143 6.43878 11.0754 9.23156 11.0754V10.0754ZM5.18164 5.9879C5.18164 3.72654 6.99893 1.90039 9.23156 1.90039V0.900391C6.43894 0.900391 4.18164 3.18199 4.18164 5.9879H5.18164ZM9.23156 1.90039C11.4654 1.90039 13.2826 3.72662 13.2826 5.9879H14.2826C14.2826 3.18191 12.0252 0.900391 9.23156 0.900391V1.90039ZM7.63186 11.4361C8.64569 10.9535 9.8186 10.9537 10.8298 11.4359L11.2602 10.5333C9.9765 9.92113 8.48755 9.92131 7.2021 10.5331L7.63186 11.4361ZM10.8294 11.4357L14.8244 13.3448L15.2556 12.4425L11.2606 10.5335L10.8294 11.4357ZM14.8245 13.3449C16.1308 13.9687 16.9642 15.2937 16.9642 16.7516H17.9642C17.9642 14.911 16.9117 13.2335 15.2555 12.4425L14.8245 13.3449ZM16.9642 16.7516V18.6308H17.9642V16.7516H16.9642ZM16.9642 18.6308C16.9642 19.4457 16.3092 20.1007 15.5076 20.1007V21.1007C16.8681 21.1007 17.9642 19.9914 17.9642 18.6308H16.9642ZM15.5076 20.1007H2.9566V21.1007H15.5076V20.1007ZM2.9566 20.1007C2.15381 20.1007 1.5 19.4446 1.5 18.6286H0.5C0.5 19.9881 1.59275 21.1007 2.9566 21.1007V20.1007ZM1.5 18.6286V16.7516H0.5V18.6286H1.5ZM1.5 16.7516C1.5 15.2925 2.33353 13.9685 3.63676 13.3447L3.20499 12.4427C1.55232 13.2338 0.5 14.9099 0.5 16.7516H1.5ZM3.63641 13.3448L7.63251 11.4358L7.20145 10.5334L3.20534 12.4425L3.63641 13.3448Z" fill="white"/>
</svg>
